<svg id="Group_3" data-name="Group 3" xmlns="http://www.w3.org/2000/svg" width="48" height="48" viewBox="0 0 48 48">
  <path id="Path_117" data-name="Path 117" d="M40.89,40.9h-7.1V29.77c0-2.66-.06-6.08-3.71-6.08-3.7,0-4.27,2.89-4.27,5.88V40.9H18.7V18h6.83v3.12h.09a7.506,7.506,0,0,1,6.74-3.7c7.2,0,8.54,4.74,8.54,10.91V40.9ZM10.67,14.87a4.13,4.13,0,1,1,4.13-4.13A4.129,4.129,0,0,1,10.67,14.87ZM14.24,40.9H7.11V18h7.13ZM44.45,0H3.54A3.5,3.5,0,0,0,0,3.46V44.54A3.5,3.5,0,0,0,3.54,48h40.9A3.516,3.516,0,0,0,48,44.54V3.46A3.516,3.516,0,0,0,44.44,0Z" fill="#2d4d73"/>
  <path id="Path_118" data-name="Path 118" d="M0,0H48V48H0Z" fill="none"/>
</svg>
