<svg id="giveaway_page" data-name="giveaway page" xmlns="http://www.w3.org/2000/svg" width="305.988" height="215.059" viewBox="0 0 305.988 215.059">
  <path id="claim_page" data-name="claim page" d="M12.093,0H293.9a12.083,12.083,0,0,1,12.093,12.093V202.967A12.083,12.083,0,0,1,293.9,215.059H12.093A12.083,12.083,0,0,1,0,202.967V12.093A12.083,12.083,0,0,1,12.093,0Z" fill="#fff"/>
  <path id="congratulation_you_won_2_Bitcoins._claim_your_prize" data-name="congratulation, you won
 2 Bitcoins. claim your prize" d="M47.53,11.222q0-1.2.487-2.109t1.347-1.4q.861-.494,1.975-.494,1.411,0,2.335.67T54.923,9.8H53.188q-.212-.578-.677-.9T51.34,8.57q-.988,0-1.573.7t-.585,1.954q0,1.256.585,1.961t1.573.705q1.4,0,1.848-1.227h1.735q-.339,1.185-1.27,1.883t-2.314.7q-1.115,0-1.975-.5t-1.347-1.411Q47.53,12.421,47.53,11.222ZM59.9,15.243q-1.1,0-1.989-.5t-1.4-1.411q-.508-.91-.508-2.109t.522-2.1q.522-.917,1.425-1.411t2.017-.494q1.115,0,2.017.494T63.416,9.12q.522.917.522,2.1t-.536,2.1q-.536.917-1.46,1.418T59.9,15.243Zm0-1.4q.621,0,1.164-.3t.882-.889q.339-.593.339-1.439T61.963,9.79q-.324-.585-.861-.882t-1.157-.3q-.621,0-1.15.3t-.839.882q-.31.585-.31,1.432,0,1.256.642,1.94T59.9,13.846Zm9.551-6.631q.917,0,1.644.381t1.136,1.129q.409.748.409,1.806v4.585H71.049V10.771q0-1.044-.522-1.6T69.1,8.612q-.9,0-1.432.557t-.529,1.6v4.345H65.532V7.342h1.608v.889q.4-.48,1.009-.748T69.455,7.215Zm8.366,0q.9,0,1.6.36t1.093.9V7.342h1.622v7.9q0,1.072-.451,1.912t-1.305,1.319q-.854.48-2.039.48-1.58,0-2.624-.741T74.533,16.2h1.594q.183.607.783.981t1.432.374q.973,0,1.573-.593t.6-1.721v-1.3q-.409.55-1.107.924t-1.587.374q-1.016,0-1.855-.515t-1.326-1.439q-.487-.924-.487-2.1t.487-2.074q.487-.9,1.326-1.4T77.821,7.215Zm2.695,4.007q0-.8-.332-1.4t-.868-.9q-.536-.31-1.157-.31T77,8.915q-.536.3-.868.889t-.332,1.39q0,.8.332,1.411t.875.924q.543.317,1.15.317t1.157-.31q.536-.31.868-.91T80.515,11.222Zm5.347-2.751q.353-.593.938-.924t1.39-.332V8.88h-.409q-.945,0-1.432.48t-.487,1.665v4.091H84.254V7.342h1.608Zm3.273,2.723q0-1.171.487-2.074t1.326-1.4q.839-.5,1.855-.5.917,0,1.6.36t1.093.9V7.342h1.622v7.774H95.5V13.959q-.409.55-1.115.917t-1.608.367q-1,0-1.834-.515t-1.319-1.439Q89.135,12.365,89.135,11.194Zm6.363.028q0-.8-.332-1.4t-.868-.9q-.536-.31-1.157-.31t-1.157.3q-.536.3-.868.889t-.332,1.39q0,.8.332,1.411t.875.924q.543.317,1.15.317t1.157-.31q.536-.31.868-.91T95.5,11.222Zm5.615-2.568v4.3q0,.437.2.628t.7.19H103v1.34h-1.27a3.9,3.9,0,0,1-.511-.032,2.788,2.788,0,0,1-.448-.1,2.091,2.091,0,0,1-.384-.159,1.73,1.73,0,0,1-.321-.222q-.578-.508-.578-1.651v-4.3h-.917V7.342h.917V5.409h1.622V7.342H103V8.654Zm10.412-1.312v7.774h-1.608V14.2q-.381.48-.995.755t-1.305.275q-.917,0-1.644-.381t-1.143-1.129q-.416-.748-.416-1.806V7.342h1.594v4.331q0,1.044.522,1.6t1.425.557q.9,0,1.432-.557t.529-1.6V7.342Zm3.725-2.666v10.44h-1.608V4.676Zm1.58,6.518q0-1.171.487-2.074t1.326-1.4q.839-.5,1.855-.5.917,0,1.6.36t1.093.9V7.342h1.622v7.774h-1.622V13.959q-.409.55-1.115.917t-1.608.367q-1,0-1.834-.515t-1.319-1.439Q116.83,12.365,116.83,11.194Zm6.363.028q0-.8-.332-1.4t-.868-.9q-.536-.31-1.157-.31t-1.157.3q-.536.3-.868.889t-.332,1.39q0,.8.332,1.411t.875.924q.543.317,1.15.317t1.157-.31q.536-.31.868-.91T123.192,11.222Zm5.615-2.568v4.3q0,.437.2.628t.7.19h.988v1.34h-1.27a3.9,3.9,0,0,1-.511-.032,2.788,2.788,0,0,1-.448-.1,2.091,2.091,0,0,1-.384-.159,1.73,1.73,0,0,1-.321-.222q-.578-.508-.578-1.651v-4.3h-.917V7.342h.917V5.409h1.622V7.342H130.7V8.654ZM133,6.312q-.437,0-.734-.3t-.3-.734q0-.437.3-.734t.734-.3q.423,0,.72.3t.3.734q0,.437-.3.734T133,6.312Zm.79,1.03v7.774h-1.608V7.342Zm5.488,7.9q-1.1,0-1.989-.5t-1.4-1.411q-.508-.91-.508-2.109t.522-2.1q.522-.917,1.425-1.411t2.017-.494q1.115,0,2.017.494t1.425,1.411q.522.917.522,2.1t-.536,2.1q-.536.917-1.46,1.418T139.276,15.243Zm0-1.4q.621,0,1.164-.3t.882-.889q.339-.593.339-1.439t-.324-1.432q-.324-.585-.861-.882t-1.157-.3q-.621,0-1.15.3t-.839.882q-.31.585-.31,1.432,0,1.256.642,1.94T139.276,13.846Zm9.551-6.631q.917,0,1.644.381t1.136,1.129q.409.748.409,1.806v4.585h-1.594V10.771q0-1.044-.522-1.6t-1.425-.557q-.9,0-1.432.557t-.529,1.6v4.345H144.9V7.342h1.608v.889q.4-.48,1.009-.748T148.827,7.215Zm7,5.968-1.707,3.894h-1.044l1-3.894ZM167.9,7.342,163.133,18.77h-1.665l1.58-3.781-3.061-7.647h1.792l2.187,5.925,2.271-5.925Zm4.585,7.9q-1.1,0-1.989-.5t-1.4-1.411q-.508-.91-.508-2.109t.522-2.1q.522-.917,1.425-1.411t2.017-.494q1.115,0,2.017.494T176,9.12q.522.917.522,2.1t-.536,2.1q-.536.917-1.46,1.418T172.486,15.243Zm0-1.4q.621,0,1.164-.3t.882-.889q.339-.593.339-1.439t-.324-1.432q-.324-.585-.861-.882t-1.157-.3q-.621,0-1.15.3t-.839.882q-.31.585-.31,1.432,0,1.256.642,1.94T172.486,13.846Zm12.669-6.5v7.774h-1.608V14.2q-.381.48-.995.755t-1.305.275q-.917,0-1.644-.381t-1.143-1.129q-.416-.748-.416-1.806V7.342h1.594v4.331q0,1.044.522,1.6t1.425.557q.9,0,1.432-.557t.529-1.6V7.342Zm16.224,0-2.412,7.774h-1.693l-1.566-5.742-1.566,5.742h-1.693l-2.427-7.774h1.637l1.622,6.25,1.651-6.25h1.679l1.58,6.222L199.8,7.342Zm4.571,7.9q-1.1,0-1.989-.5t-1.4-1.411q-.508-.91-.508-2.109t.522-2.1Q203.1,8.2,204,7.709t2.017-.494q1.115,0,2.017.494t1.425,1.411q.522.917.522,2.1t-.536,2.1q-.536.917-1.46,1.418T205.951,15.243Zm0-1.4q.621,0,1.164-.3t.882-.889q.339-.593.339-1.439t-.324-1.432q-.324-.585-.861-.882t-1.157-.3q-.621,0-1.15.3T204,9.79q-.31.585-.31,1.432,0,1.256.642,1.94T205.951,13.846ZM215.5,7.215q.917,0,1.644.381t1.136,1.129q.409.748.409,1.806v4.585H217.1V10.771q0-1.044-.522-1.6t-1.425-.557q-.9,0-1.432.557t-.529,1.6v4.345H211.58V7.342h1.608v.889q.4-.48,1.009-.748T215.5,7.215ZM42.945,34.091q1.354-1.171,2.137-1.926t1.305-1.573q.522-.818.522-1.637,0-.846-.4-1.326t-1.263-.48q-.832,0-1.291.529T43.467,29.1H41.915q.042-1.608.966-2.462t2.349-.854q1.538,0,2.405.846t.868,2.257q0,1.016-.515,1.954t-1.227,1.679q-.712.741-1.813,1.714l-.635.564h4.472v1.34H41.93V34.966Zm16.38-2.85q.79.141,1.34.832t.55,1.566q0,.748-.388,1.347t-1.122.945q-.734.346-1.707.346H54.077V26.473h3.739q1,0,1.721.339t1.086.91q.367.571.367,1.277,0,.846-.451,1.411T59.325,31.241Zm-3.64-.649h1.989q.79,0,1.234-.36t.444-1.037q0-.663-.444-1.037t-1.234-.374H55.685Zm2.173,4.374q.818,0,1.284-.4t.466-1.1q0-.72-.494-1.143T57.8,31.9H55.685v3.061Zm5.925-7.491q-.437,0-.734-.3t-.3-.734q0-.437.3-.734t.734-.3q.423,0,.72.3t.3.734q0,.437-.3.734T63.783,27.475Zm.79,1.03v7.774H62.965V28.5Zm3.993,1.312v4.3q0,.437.2.628t.7.19h.988v1.34h-1.27a3.9,3.9,0,0,1-.511-.032,2.787,2.787,0,0,1-.448-.1,2.091,2.091,0,0,1-.384-.159,1.73,1.73,0,0,1-.321-.222q-.578-.508-.578-1.651v-4.3h-.917V28.5h.917V26.572h1.622V28.5h1.89v1.312ZM71.4,32.384q0-1.2.487-2.109t1.347-1.4q.861-.494,1.975-.494,1.411,0,2.335.67t1.249,1.912H77.059q-.212-.578-.677-.9t-1.171-.324q-.988,0-1.573.7t-.585,1.954q0,1.256.585,1.961t1.573.705q1.4,0,1.848-1.227h1.735q-.339,1.185-1.27,1.883t-2.314.7q-1.115,0-1.975-.5t-1.347-1.411Q71.4,33.583,71.4,32.384Zm12.373,4.021q-1.1,0-1.989-.5t-1.4-1.411q-.508-.91-.508-2.109t.522-2.1q.522-.917,1.425-1.411t2.017-.494q1.115,0,2.017.494t1.425,1.411q.522.917.522,2.1t-.536,2.1q-.536.917-1.46,1.418T83.774,36.405Zm0-1.4q.621,0,1.164-.3t.882-.889q.339-.593.339-1.439t-.324-1.432q-.324-.585-.861-.882t-1.157-.3q-.621,0-1.15.3t-.839.882q-.31.585-.31,1.432,0,1.256.642,1.94T83.774,35.008Zm6.447-7.534q-.437,0-.734-.3t-.3-.734q0-.437.3-.734t.734-.3q.423,0,.72.3t.3.734q0,.437-.3.734T90.222,27.475Zm.79,1.03v7.774H89.4V28.5Zm6.038-.127q.917,0,1.644.381t1.136,1.129q.409.748.409,1.806v4.585H98.644V31.933q0-1.044-.522-1.6T96.7,29.774q-.9,0-1.432.557t-.529,1.6v4.345H93.128V28.5h1.608v.889q.4-.48,1.009-.748T97.05,28.378Zm8.056,8.028q-.917,0-1.644-.332t-1.15-.9q-.423-.571-.451-1.277h1.665q.042.494.473.825t1.079.332q.677,0,1.051-.261t.374-.67q0-.437-.416-.649t-1.319-.466q-.875-.24-1.425-.466t-.952-.691q-.4-.466-.4-1.227,0-.621.367-1.136t1.051-.811q.684-.3,1.573-.3,1.326,0,2.137.67t.868,1.827h-1.608q-.042-.522-.423-.832t-1.03-.31q-.635,0-.973.24t-.339.635q0,.31.226.522t.55.332q.324.12.959.3.846.226,1.39.459t.938.684q.4.451.409,1.2,0,.663-.367,1.185t-1.037.818Q106.009,36.405,105.106,36.405Zm5.361-.028q-.437,0-.734-.3t-.3-.734q0-.437.3-.734t.734-.3q.423,0,.72.3t.3.734q0,.437-.3.734T110.467,36.377Zm5.883-3.993q0-1.2.487-2.109t1.347-1.4q.861-.494,1.975-.494,1.411,0,2.335.67t1.249,1.912h-1.735q-.212-.578-.677-.9t-1.171-.324q-.988,0-1.573.7T118,32.384q0,1.256.585,1.961t1.573.705q1.4,0,1.848-1.227h1.735q-.339,1.185-1.27,1.883t-2.314.7q-1.115,0-1.975-.5t-1.347-1.411Q116.35,33.583,116.35,32.384Zm10.609-6.546v10.44h-1.608V25.838Zm1.58,6.518q0-1.171.487-2.074t1.326-1.4q.839-.5,1.855-.5.917,0,1.6.36t1.093.9V28.5h1.622v7.774H134.9V35.121q-.409.55-1.115.917t-1.608.367q-1,0-1.834-.515t-1.319-1.439Q128.539,33.527,128.539,32.356Zm6.363.028q0-.8-.332-1.4t-.868-.9q-.536-.31-1.157-.31t-1.157.3q-.536.3-.868.889t-.332,1.39q0,.8.332,1.411t.875.924q.543.317,1.15.317t1.157-.31q.536-.31.868-.91T134.9,32.384Zm4.557-4.91q-.437,0-.734-.3t-.3-.734q0-.437.3-.734t.734-.3q.423,0,.72.3t.3.734q0,.437-.3.734T139.459,27.475Zm.79,1.03v7.774h-1.608V28.5Zm11.526-.127q.917,0,1.644.381t1.143,1.129q.416.748.416,1.806v4.585h-1.594V31.933q0-1.044-.522-1.6t-1.425-.557q-.9,0-1.432.557t-.529,1.6v4.345h-1.594V31.933q0-1.044-.522-1.6t-1.425-.557q-.9,0-1.432.557t-.529,1.6v4.345h-1.608V28.5h1.608v.889q.4-.48,1-.748t1.3-.268q.931,0,1.665.4t1.129,1.143q.353-.705,1.1-1.122T151.776,28.378Zm15.914.127-4.769,11.428h-1.665l1.58-3.781L159.775,28.5h1.792l2.187,5.925,2.271-5.925Zm4.585,7.9q-1.1,0-1.989-.5t-1.4-1.411q-.508-.91-.508-2.109t.522-2.1q.522-.917,1.425-1.411t2.017-.494q1.115,0,2.017.494t1.425,1.411q.522.917.522,2.1t-.536,2.1q-.536.917-1.46,1.418T172.275,36.405Zm0-1.4q.621,0,1.164-.3t.882-.889q.339-.593.339-1.439t-.324-1.432q-.324-.585-.861-.882t-1.157-.3q-.621,0-1.15.3t-.839.882q-.31.585-.31,1.432,0,1.256.642,1.94T172.275,35.008Zm12.669-6.5v7.774h-1.608v-.917q-.381.48-.995.755t-1.3.275q-.917,0-1.644-.381t-1.143-1.129q-.416-.748-.416-1.806V28.5h1.594v4.331q0,1.044.522,1.6t1.425.557q.9,0,1.432-.557t.529-1.6V28.5Zm3.725,1.129q.353-.593.938-.924t1.39-.332v1.665h-.409q-.945,0-1.432.48t-.487,1.665v4.091H187.06V28.5h1.608Zm9.086.014q.409-.536,1.115-.9t1.594-.367q1.016,0,1.855.5t1.319,1.4q.48.9.48,2.074t-.48,2.1q-.48.924-1.319,1.439t-1.855.515q-.889,0-1.58-.36t-1.129-.9v4.825h-1.608V28.5h1.608Zm4.726,2.709q0-.8-.332-1.39t-.875-.889q-.543-.3-1.164-.3t-1.15.31q-.543.31-.875.9t-.332,1.4q0,.8.332,1.4t.875.91q.543.31,1.15.31t1.164-.317q.543-.317.875-.924T202.48,32.356Zm4.839-2.723q.353-.593.938-.924t1.39-.332v1.665h-.409q-.945,0-1.432.48t-.487,1.665v4.091h-1.608V28.5h1.608Zm4.627-2.159q-.437,0-.734-.3t-.3-.734q0-.437.3-.734t.734-.3q.423,0,.72.3t.3.734q0,.437-.3.734T211.947,27.475Zm.79,1.03v7.774h-1.608V28.5Zm3.541,6.462h3.527v1.312h-5.389V34.966l3.541-5.149h-3.541V28.5h5.389v1.312ZM228.623,32.2q0,.437-.056.79h-5.94q.071.931.691,1.5t1.524.564q1.3,0,1.834-1.086h1.735q-.353,1.072-1.277,1.756t-2.293.684q-1.115,0-2-.5t-1.383-1.411q-.5-.91-.5-2.109t.487-2.109q.487-.91,1.368-1.4t2.025-.494q1.1,0,1.961.48t1.34,1.347Q228.623,31.072,228.623,32.2Zm-1.679-.508q-.014-.889-.635-1.425t-1.538-.536q-.832,0-1.425.529t-.705,1.432Z" transform="translate(19.651 13.469)"/>
  <g id="Rectangle_53" data-name="Rectangle 53" transform="translate(32.496 83.132)" fill="#f7f7f7">
    <path d="M4.031,0H239.478a4.028,4.028,0,0,1,4.031,4.031V22.17a4.028,4.028,0,0,1-4.031,4.031H4.031A4.028,4.028,0,0,1,0,22.17V4.031A4.028,4.028,0,0,1,4.031,0Z" stroke="none"/>
    <path d="M 239.47802734375 25.69698715209961 C 239.9642333984375 25.69698715209961 240.4277801513672 25.59809875488281 240.849609375 25.41937637329102 C 241.2714385986328 25.24065589904785 241.6515350341797 24.98210334777832 241.9708557128906 24.66277694702148 C 242.2901916503906 24.34344673156738 242.5487518310547 23.96334266662598 242.7274627685547 23.54151916503906 C 242.9061737060547 23.11969757080078 243.0050659179688 22.65615463256836 243.0050659179688 22.16995048522949 L 243.0050659179688 4.030900001525879 C 243.0050659179688 3.544696092605591 242.9061737060547 3.081154584884644 242.7274627685547 2.659331560134888 C 242.5487518310547 2.237508773803711 242.2901916503906 1.857404470443726 241.9708557128906 1.538075685501099 C 241.6515350341797 1.218746900558472 241.2714385986328 0.9601935744285583 240.849609375 0.7814725041389465 C 240.4277801513672 0.6027513742446899 239.9642333984375 0.5038625001907349 239.47802734375 0.5038625001907349 L 4.030896186828613 0.5038625001907349 C 3.544692516326904 0.5038625001907349 3.081150770187378 0.6027513742446899 2.659327745437622 0.7814725041389465 C 2.237504959106445 0.9601935744285583 1.85740077495575 1.218746900558472 1.538071990013123 1.538075685501099 C 1.218743205070496 1.857404470443726 0.9601898193359375 2.237508773803711 0.7814686894416809 2.659331560134888 C 0.6027476191520691 3.081154584884644 0.5038586854934692 3.544696092605591 0.5038586854934692 4.030900001525879 L 0.5038586854934692 22.16995048522949 C 0.5038586854934692 22.65615463256836 0.6027476191520691 23.11969757080078 0.7814687490463257 23.54151916503906 C 0.9601898789405823 23.96334266662598 1.218743324279785 24.34344673156738 1.538071990013123 24.66277694702148 C 1.85740077495575 24.98210334777832 2.237504959106445 25.24065589904785 2.659327745437622 25.41937637329102 C 3.081150770187378 25.59809875488281 3.544692516326904 25.69698715209961 4.030896186828613 25.69698715209961 L 239.47802734375 25.69698715209961 M 239.47802734375 26.20084953308105 L 4.030896186828613 26.20084953308105 C 3.474348306655884 26.20084953308105 2.944143295288086 26.08805465698242 2.461893796920776 25.88407897949219 C 1.979644417762756 25.68010330200195 1.545350313186646 25.38494682312012 1.180624723434448 25.02022171020508 C 0.8158991932868958 24.65549468994141 0.5207420587539673 24.22120094299316 0.3167662918567657 23.73895263671875 C 0.1127905324101448 23.2567024230957 -3.81341237698507e-06 22.72649765014648 -3.81341237698507e-06 22.16995048522949 L -3.81341237698507e-06 4.030900001525879 C -3.81341237698507e-06 3.474352359771729 0.1127905324101448 2.944147109985352 0.3167662918567657 2.461897611618042 C 0.5207420587539673 1.979648232460022 0.8158991932868958 1.545354127883911 1.180624723434448 1.180628657341003 C 1.545350313186646 0.8159030079841614 1.979644536972046 0.5207458138465881 2.461894035339355 0.316770076751709 C 2.944143772125244 0.1127943396568298 3.474348545074463 0 4.030896186828613 0 L 239.47802734375 0 C 240.0345764160156 0 240.5647735595703 0.1127943396568298 241.0470275878906 0.316770076751709 C 241.5292816162109 0.5207458138465881 241.9635772705078 0.8159030079841614 242.3282928466797 1.180628657341003 C 242.6930084228516 1.545354127883911 242.9881896972656 1.979648232460022 243.1921539306641 2.461897611618042 C 243.3961181640625 2.944147109985352 243.5089263916016 3.474352359771729 243.5089263916016 4.030900001525879 L 243.5089263916016 22.16995048522949 C 243.5089263916016 22.72649765014648 243.3961181640625 23.2567024230957 243.1921539306641 23.73895263671875 C 242.9881896972656 24.22120094299316 242.6930084228516 24.65549468994141 242.3282928466797 25.02022171020508 C 241.9635772705078 25.38494682312012 241.5292816162109 25.68010330200195 241.0470275878906 25.88407897949219 C 240.5647735595703 26.08805465698242 240.0345764160156 26.20084953308105 239.47802734375 26.20084953308105 Z" stroke="none" fill="#45a0b7"/>
  </g>
  <path id="username" d="M8.342,5.532v5.553H7.193V10.43q-.272.343-.71.539t-.932.2q-.655,0-1.174-.272t-.816-.806q-.3-.534-.3-1.29V5.532H4.4V8.626q0,.746.373,1.144t1.018.4q.645,0,1.023-.4t.378-1.144V5.532Zm3.527,5.643q-.655,0-1.174-.237t-.821-.645q-.3-.408-.322-.912h1.189q.03.353.338.59t.771.237q.484,0,.751-.186t.267-.479q0-.312-.3-.464t-.942-.333Q11,8.576,10.61,8.415t-.68-.494q-.287-.333-.287-.877,0-.443.262-.811t.751-.579q.489-.212,1.124-.212.947,0,1.527.479t.62,1.305H12.776q-.03-.373-.3-.595t-.736-.222q-.453,0-.7.171t-.242.453q0,.222.161.373t.393.237q.232.086.685.217.6.161.993.328t.67.489q.282.322.292.857,0,.474-.262.846t-.741.584Q12.514,11.176,11.869,11.176Zm8.455-3q0,.312-.04.564H16.041q.05.665.494,1.068t1.088.4q.927,0,1.31-.776h1.24q-.252.766-.912,1.255t-1.638.489q-.8,0-1.426-.358T15.21,9.81q-.358-.65-.358-1.507T15.2,6.8q.348-.65.977-1t1.446-.353q.786,0,1.4.343t.957.962Q20.324,7.366,20.324,8.173Zm-1.2-.363q-.01-.635-.453-1.018t-1.1-.383q-.595,0-1.018.378t-.5,1.023ZM22.6,6.339q.252-.423.67-.66t.993-.237V6.631h-.292q-.675,0-1.023.343T22.6,8.163v2.922H21.453V5.532H22.6Zm5.522-.9q.655,0,1.174.272t.811.806q.292.534.292,1.29v3.275H29.263v-3.1q0-.746-.373-1.144t-1.018-.4q-.645,0-1.023.4t-.378,1.144v3.1H25.322V5.532h1.149v.635q.282-.343.721-.534T28.124,5.442ZM31.48,8.283q0-.836.348-1.481t.947-1q.6-.358,1.325-.358.655,0,1.144.257t.781.64V5.532h1.159v5.553H36.024v-.826q-.292.393-.8.655t-1.149.262q-.715,0-1.31-.368T31.827,9.78Q31.48,9.12,31.48,8.283Zm4.545.02q0-.574-.237-1t-.62-.645q-.383-.222-.826-.222t-.826.217q-.383.217-.62.635t-.237.993q0,.574.237,1.008t.625.66q.388.227.821.227t.826-.222q.383-.222.62-.65T36.024,8.3Zm9.392-2.862q.655,0,1.174.272t.816.806q.3.534.3,1.29v3.275H46.565v-3.1q0-.746-.373-1.144t-1.018-.4q-.645,0-1.023.4t-.378,1.144v3.1H42.635v-3.1q0-.746-.373-1.144t-1.018-.4q-.645,0-1.023.4t-.378,1.144v3.1H38.695V5.532h1.149v.635q.282-.343.715-.534t.927-.191q.665,0,1.189.282t.806.816q.252-.5.786-.8T45.416,5.442Zm8.838,2.731q0,.312-.04.564H49.971q.05.665.494,1.068t1.088.4q.927,0,1.31-.776H54.1q-.252.766-.912,1.255t-1.638.489q-.8,0-1.426-.358T49.14,9.81q-.358-.65-.358-1.507T49.13,6.8q.348-.65.977-1t1.446-.353q.786,0,1.4.343t.957.962Q54.254,7.366,54.254,8.173Zm-1.2-.363q-.01-.635-.453-1.018t-1.1-.383q-.595,0-1.018.378t-.5,1.023Z" transform="translate(124.454 64.333)"/>
  <g id="Rectangle_54" data-name="Rectangle 54" transform="translate(32.496 134.788)" fill="#f7f7f7">
    <path d="M4.031,0H239.478a4.028,4.028,0,0,1,4.031,4.031V22.17a4.028,4.028,0,0,1-4.031,4.031H4.031A4.028,4.028,0,0,1,0,22.17V4.031A4.028,4.028,0,0,1,4.031,0Z" stroke="none"/>
    <path d="M 239.47802734375 25.69698715209961 C 239.9642333984375 25.69698715209961 240.4277801513672 25.59809875488281 240.8495941162109 25.41937637329102 C 241.2714080810547 25.24065589904785 241.6515197753906 24.98210334777832 241.9708557128906 24.66277694702148 C 242.2901916503906 24.34344673156738 242.5487518310547 23.96334266662598 242.7274627685547 23.54151916503906 C 242.9061737060547 23.11969757080078 243.0050659179688 22.65615463256836 243.0050659179688 22.16995048522949 L 243.0050659179688 4.030900001525879 C 243.0050659179688 3.544696092605591 242.9061737060547 3.081154584884644 242.7274627685547 2.659331560134888 C 242.5487518310547 2.237508773803711 242.2901916503906 1.857404470443726 241.9708557128906 1.538075685501099 C 241.6515197753906 1.218746900558472 241.2714080810547 0.9601935744285583 240.8495941162109 0.7814725041389465 C 240.4277801513672 0.6027513742446899 239.9642333984375 0.5038625001907349 239.47802734375 0.5038625001907349 L 4.030888557434082 0.5038625001907349 C 3.544684886932373 0.5038625001907349 3.081143140792847 0.6027513742446899 2.659320116043091 0.7814725041389465 C 2.237497091293335 0.9601935744285583 1.857393026351929 1.218746900558472 1.538064360618591 1.538075685501099 C 1.218735456466675 1.857404470443726 0.9601821303367615 2.237508773803711 0.7814610004425049 2.659331560134888 C 0.6027399301528931 3.081154584884644 0.5038509964942932 3.544696092605591 0.5038509964942932 4.030900001525879 L 0.5038509964942932 22.16995048522949 C 0.5038509964942932 22.65615463256836 0.6027399301528931 23.11969757080078 0.7814610600471497 23.54151916503906 C 0.9601821899414062 23.96334266662598 1.218735575675964 24.34344673156738 1.538064360618591 24.66277694702148 C 1.857393026351929 24.98210334777832 2.237497091293335 25.24065589904785 2.659320116043091 25.41937637329102 C 3.081143140792847 25.59809875488281 3.544684886932373 25.69698715209961 4.030888557434082 25.69698715209961 L 239.47802734375 25.69698715209961 M 239.47802734375 26.20084953308105 L 4.030888557434082 26.20084953308105 C 3.474340677261353 26.20084953308105 2.944135665893555 26.08805465698242 2.461886167526245 25.88407897949219 C 1.979636669158936 25.68010330200195 1.545342683792114 25.38494682312012 1.180617094039917 25.02022171020508 C 0.8158915042877197 24.65549468994141 0.5207343697547913 24.22120094299316 0.3167586028575897 23.73895263671875 C 0.1127828434109688 23.2567024230957 -1.150174466602039e-05 22.72649765014648 -1.150174466602039e-05 22.16995048522949 L -1.150174466602039e-05 4.030900001525879 C -1.150174466602039e-05 3.474352359771729 0.1127828434109688 2.944147109985352 0.3167586028575897 2.461897611618042 C 0.5207343697547913 1.979648232460022 0.8158915042877197 1.545354127883911 1.180617094039917 1.180628657341003 C 1.545342683792114 0.8159030079841614 1.979636788368225 0.5207458138465881 2.461886405944824 0.316770076751709 C 2.944136142730713 0.1127943396568298 3.474340915679932 0 4.030888557434082 0 L 239.47802734375 0 C 240.0345764160156 0 240.5647735595703 0.1127943396568298 241.0470275878906 0.316770076751709 C 241.5292816162109 0.5207458138465881 241.9635772705078 0.8159030079841614 242.3282928466797 1.180628657341003 C 242.6930084228516 1.545354127883911 242.9881896972656 1.979648232460022 243.1921539306641 2.461897611618042 C 243.3961181640625 2.944147109985352 243.5089263916016 3.474352359771729 243.5089263916016 4.030900001525879 L 243.5089263916016 22.16995048522949 C 243.5089263916016 22.72649765014648 243.3961181640625 23.2567024230957 243.1921539306641 23.73895263671875 C 242.9881896972656 24.22120094299316 242.6930084228516 24.65549468994141 242.3282928466797 25.02022171020508 C 241.9635772705078 25.38494682312012 241.5292816162109 25.68010330200195 241.0470275878906 25.88407897949219 C 240.5647735595703 26.08805465698242 240.0345764160156 26.20084953308105 239.47802734375 26.20084953308105 Z" stroke="none" fill="#45a0b7"/>
  </g>
  <path id="wallet_address" data-name="wallet address" d="M10.6,5.532,8.877,11.085H7.668l-1.119-4.1-1.119,4.1H4.221L2.488,5.532H3.657L4.816,10,5.995,5.532h1.2L8.323,9.976,9.472,5.532Zm.474,2.751q0-.836.348-1.481t.947-1q.6-.358,1.325-.358.655,0,1.144.257t.781.64V5.532h1.159v5.553H15.619v-.826q-.292.393-.8.655t-1.149.262q-.715,0-1.31-.368T11.422,9.78Q11.074,9.12,11.074,8.283Zm4.545.02q0-.574-.237-1t-.62-.645q-.383-.222-.826-.222t-.826.217q-.383.217-.62.635t-.237.993q0,.574.237,1.008t.625.66q.388.227.821.227t.826-.222q.383-.222.62-.65T15.619,8.3Zm3.819-4.676v7.457H18.289V3.628Zm2.66,0v7.457H20.95V3.628Zm6.6,4.545q0,.312-.04.564H24.416q.05.665.494,1.068t1.088.4q.927,0,1.31-.776h1.24q-.252.766-.912,1.255T26,11.176q-.8,0-1.426-.358T23.585,9.81q-.358-.65-.358-1.507T23.575,6.8q.348-.65.977-1T26,5.442q.786,0,1.4.343t.957.962Q28.7,7.366,28.7,8.173ZM27.5,7.81q-.01-.635-.453-1.018t-1.1-.383q-.595,0-1.018.378t-.5,1.023Zm3.668-1.34V9.543q0,.312.146.448t.5.136h.705v.957h-.907a2.788,2.788,0,0,1-.365-.023,1.991,1.991,0,0,1-.32-.068,1.493,1.493,0,0,1-.275-.113,1.236,1.236,0,0,1-.229-.159q-.413-.363-.413-1.179V6.47h-.655V5.532h.655V4.152h1.159V5.532h1.35V6.47Zm4.646,1.814q0-.836.348-1.481t.947-1q.6-.358,1.325-.358.655,0,1.144.257t.781.64V5.532h1.159v5.553H40.358v-.826q-.292.393-.8.655t-1.149.262q-.715,0-1.31-.368T36.161,9.78Q35.813,9.12,35.813,8.283Zm4.545.02q0-.574-.237-1t-.62-.645q-.383-.222-.826-.222t-.826.217q-.383.217-.62.635t-.237.993q0,.574.237,1.008t.625.66q.388.227.821.227t.826-.222q.383-.222.62-.65T40.358,8.3Zm2.288-.02q0-.836.348-1.481t.947-1q.6-.358,1.335-.358.544,0,1.073.237t.841.63V3.628H48.35v7.457H47.191v-.836q-.282.4-.781.665t-1.144.262q-.726,0-1.325-.368T42.994,9.78Q42.646,9.12,42.646,8.283Zm4.545.02q0-.574-.237-1t-.62-.645q-.383-.222-.826-.222t-.826.217q-.383.217-.62.635t-.237.993q0,.574.237,1.008t.625.66q.388.227.821.227t.826-.222q.383-.222.62-.65T47.191,8.3Zm2.288-.02q0-.836.348-1.481t.947-1q.6-.358,1.335-.358.544,0,1.073.237t.841.63V3.628h1.159v7.457H54.023v-.836q-.282.4-.781.665t-1.144.262q-.726,0-1.325-.368T49.826,9.78Q49.478,9.12,49.478,8.283Zm4.545.02q0-.574-.237-1t-.62-.645q-.383-.222-.826-.222t-.826.217q-.383.217-.62.635t-.237.993q0,.574.237,1.008t.625.66q.388.227.821.227t.826-.222q.383-.222.62-.65T54.023,8.3Zm3.819-1.965q.252-.423.67-.66t.993-.237V6.631h-.292q-.675,0-1.023.343t-.348,1.189v2.922H56.694V5.532h1.149Zm7.81,1.834q0,.312-.04.564H61.369q.05.665.494,1.068t1.088.4q.927,0,1.31-.776H65.5q-.252.766-.912,1.255t-1.638.489q-.8,0-1.426-.358T60.538,9.81Q60.18,9.16,60.18,8.3T60.528,6.8q.348-.65.977-1t1.446-.353q.786,0,1.4.343t.957.962Q65.652,7.366,65.652,8.173Zm-1.2-.363q-.01-.635-.453-1.018t-1.1-.383q-.595,0-1.018.378t-.5,1.023ZM68.8,11.176q-.655,0-1.174-.237t-.821-.645q-.3-.408-.322-.912h1.189q.03.353.338.59t.771.237q.484,0,.751-.186t.267-.479q0-.312-.3-.464t-.942-.333q-.625-.171-1.018-.333t-.68-.494q-.287-.333-.287-.877,0-.443.262-.811t.751-.579q.489-.212,1.124-.212.947,0,1.527.479t.62,1.305H69.7q-.03-.373-.3-.595t-.736-.222q-.453,0-.7.171t-.242.453q0,.222.161.373t.393.237q.232.086.685.217.6.161.993.328t.67.489q.282.322.292.857,0,.474-.262.846t-.741.584Q69.441,11.176,68.8,11.176Zm5.381,0q-.655,0-1.174-.237t-.821-.645q-.3-.408-.322-.912h1.189q.03.353.338.59t.771.237q.484,0,.751-.186t.267-.479q0-.312-.3-.464t-.942-.333q-.625-.171-1.018-.333t-.68-.494q-.287-.333-.287-.877,0-.443.262-.811t.751-.579q.489-.212,1.124-.212.947,0,1.527.479t.62,1.305H75.085q-.03-.373-.3-.595t-.736-.222q-.453,0-.7.171t-.242.453q0,.222.161.373t.393.237q.232.086.685.217.6.161.993.328t.67.489q.282.322.292.857,0,.474-.262.846t-.741.584Q74.823,11.176,74.178,11.176Z" transform="translate(113.369 115.989)"/>
  <path id="Rectangle_55" data-name="Rectangle 55" d="M4.031,0H75.645a4.028,4.028,0,0,1,4.031,4.031v18.43a4.028,4.028,0,0,1-4.031,4.031H4.031A4.028,4.028,0,0,1,0,22.461V4.031A4.028,4.028,0,0,1,4.031,0Z" transform="translate(121.218 173.645)" fill="#449cc2"/>
  <path id="claim" d="M8.328,9.763q0-1.028.417-1.808T9.9,6.752q.738-.423,1.693-.423,1.209,0,2,.574t1.07,1.639H13.178q-.181-.5-.58-.774t-1-.278q-.846,0-1.348.6t-.5,1.675q0,1.076.5,1.681t1.348.6q1.2,0,1.584-1.052h1.487q-.29,1.016-1.088,1.614t-1.983.6q-.955,0-1.693-.429T8.746,11.571Q8.328,10.791,8.328,9.763Zm9.094-5.611V13.1H16.044V4.152Zm1.354,5.587q0-1,.417-1.778t1.137-1.2q.72-.429,1.59-.429.786,0,1.373.308t.937.768V6.437h1.391V13.1H24.23v-.992q-.351.472-.955.786t-1.379.314q-.859,0-1.572-.441t-1.131-1.233Q18.777,10.742,18.777,9.739Zm5.454.024q0-.689-.284-1.2T23.2,7.792q-.46-.266-.992-.266t-.992.26q-.46.26-.744.762t-.284,1.191q0,.689.284,1.209t.75.792q.466.272.986.272t.992-.266q.46-.266.744-.78T24.23,9.763Zm3.906-4.208q-.375,0-.629-.254t-.254-.629q0-.375.254-.629t.629-.254q.363,0,.617.254t.254.629q0,.375-.254.629T28.136,5.555Zm.677.883V13.1H27.435V6.437Zm9.88-.109q.786,0,1.409.327t.98.967q.357.641.357,1.548V13.1H40.072V9.376q0-.895-.447-1.373T38.4,7.526q-.774,0-1.227.478t-.453,1.373V13.1H35.356V9.376q0-.895-.447-1.373t-1.221-.478q-.774,0-1.227.478t-.453,1.373V13.1H30.627V6.437h1.379V7.2q.339-.411.859-.641t1.113-.23q.8,0,1.427.339t.967.98q.3-.6.943-.961T38.693,6.329Z" transform="translate(135.973 177.134)" fill="#fff"/>
</svg>
