<svg id="Group_4" data-name="Group 4" xmlns="http://www.w3.org/2000/svg" width="48" height="48" viewBox="0 0 48 48">
  <path id="Path_119" data-name="Path 119" d="M95.784-484.966a12.123,12.123,0,0,1-1.712,2.42,12.287,12.287,0,0,1-3.082,2.574c.034.268.063.525.08.759a27.249,27.249,0,0,1-1.964,10.52,27.79,27.79,0,0,1-11.136,13.7c-5.383,3.059-11.65,3.7-17.426,3.151a20.069,20.069,0,0,1-10.474-4.013,19.641,19.641,0,0,0,13.962-3.984c-4.287.108-7.4-2.962-8.87-6.507a6.21,6.21,0,0,0,1.992.1,18.523,18.523,0,0,0,2.237-.308,10.523,10.523,0,0,1-6.37-4.892,10.443,10.443,0,0,1-1.067-4.641,9,9,0,0,0,4.23,1.261,10.823,10.823,0,0,1-4.155-6.69,12.3,12.3,0,0,1,1.147-6.028,32.091,32.091,0,0,0,10.879,8.077,22.752,22.752,0,0,0,8.539,1.764,11.182,11.182,0,0,1,1.147-7.163,9.851,9.851,0,0,1,5.885-4.241,8.737,8.737,0,0,1,8.716,2.677,15.671,15.671,0,0,0,6.062-2.22,9.11,9.11,0,0,1-4.178,5.348A26.713,26.713,0,0,0,95.784-484.966Z" transform="translate(-48.925 493.949)" fill="#83c2f2"/>
  <path id="Path_120" data-name="Path 120" d="M0,0H48V48H0Z" fill="none"/>
</svg>
