<svg xmlns="http://www.w3.org/2000/svg" width="250" height="100" viewBox="0 0 250 100">
  <g id="credit_balance" data-name="credit balance" transform="translate(-466 -489)">
    <path id="buy" d="M10,0H240c5.523,0,10,3.731,10,8.333V91.667c0,4.6-4.477,8.333-10,8.333H10c-5.523,0-10-3.731-10-8.333V8.333C0,3.731,4.477,0,10,0Z" transform="translate(466 489)" fill="#faca43"/>
    <text id="Credit_Balance:_50" data-name="Credit Balance:
$50" transform="translate(555 514)" font-size="17" font-family="Poppins-Medium, Poppins" font-weight="500"><tspan x="0" y="18">Credit Balance:</tspan><tspan x="0" y="44">$50</tspan></text>
    <circle id="Ellipse_23" data-name="Ellipse 23" cx="25" cy="25" r="25" transform="translate(485 514)" fill="#ebeaea"/>
    <path id="Icon_awesome-paypal" data-name="Icon awesome-paypal" d="M7.255,16.757c-.228,1.058-1.133,5.992-1.4,7.387-.02.1-.065.138-.2.138H.8a.718.718,0,0,1-.788-.766l3.816-20.5a1.278,1.278,0,0,1,1.3-.932c9.918,0,10.751-.2,13.284.628C22.33,4,22.688,7.093,21.281,10.445c-1.4,3.451-4.721,4.934-9.123,4.978C9.332,15.461,7.632,15.037,7.255,16.757Zm16-7.933c-.117-.072-.163-.1-.2.072a11.345,11.345,0,0,1-.573,1.852c-2.6,6.273-9.8,5.728-13.317,5.728a.629.629,0,0,0-.71.518c-1.472,7.74-1.765,9.355-1.765,9.355a.624.624,0,0,0,.69.711H11.52a1.128,1.128,0,0,0,1.133-.821c.046-.3-.072.336.938-5.033.3-1.213.931-1.086,1.908-1.086,4.623,0,8.231-1.588,9.306-6.191.423-1.918.3-3.936-1.55-5.1Z" transform="translate(497.994 524.94)"/>
  </g>
</svg>
