<svg xmlns="http://www.w3.org/2000/svg" xmlns:xlink="http://www.w3.org/1999/xlink" width="368" height="356.025" viewBox="0 0 368 356.025">
  <defs>
    <filter id="Path_13" x="0" y="82.025" width="368" height="265" filterUnits="userSpaceOnUse">
      <feOffset input="SourceAlpha"/>
      <feGaussianBlur stdDeviation="3" result="blur"/>
      <feFlood flood-opacity="0.2"/>
      <feComposite operator="in" in2="blur"/>
      <feComposite in="SourceGraphic"/>
    </filter>
    <filter id="Path_14" x="0" y="91.025" width="368" height="265" filterUnits="userSpaceOnUse">
      <feOffset dy="3" input="SourceAlpha"/>
      <feGaussianBlur stdDeviation="3" result="blur-2"/>
      <feFlood flood-opacity="0.2"/>
      <feComposite operator="in" in2="blur-2"/>
      <feComposite in="SourceGraphic"/>
    </filter>
  </defs>
  <g id="Group_10" data-name="Group 10" transform="translate(-151.5 -305.975)">
    <g transform="matrix(1, 0, 0, 1, 151.5, 305.97)" filter="url(#Path_13)">
      <path id="Path_13-2" data-name="Path 13" d="M0,0H350V247Z" transform="translate(9 91.03)" fill="gold"/>
    </g>
    <path id="Path_10" data-name="Path 10" d="M-20.238.847,80,0a24,24,0,0,1,24,24L3.488,25.416Z" transform="matrix(0.695, -0.719, 0.719, 0.695, 328.12, 380.786)"/>
    <path id="Path_9" data-name="Path 9" d="M47.432,21.7C46.977,21.535,109,22.416,109,51.29c0,15.592-19.719,29.5-38.294,39.113-15.342,7.937-29.925,12.79-30.433,12.72-1.1-.151,28.557-20.983,28.557-49.857S47.887,21.866,47.432,21.7Z" transform="translate(351.938 294.279)"/>
    <path id="Path_11" data-name="Path 11" d="M0,24.569l100.238.847a24,24,0,0,0,24-24L23.726,0Z" transform="matrix(-0.695, -0.719, 0.719, -0.695, 330.655, 413)"/>
    <path id="Path_12" data-name="Path 12" d="M101.812,21.7c.455-.165-61.568.715-61.568,29.589,0,15.592,19.719,29.5,38.294,39.113,15.342,7.937,29.925,12.79,30.433,12.72,1.1-.151-28.557-20.983-28.557-49.857S101.357,21.866,101.812,21.7Z" transform="translate(161.818 294.279)"/>
    <g transform="matrix(1, 0, 0, 1, 151.5, 305.97)" filter="url(#Path_14)">
      <path id="Path_14-2" data-name="Path 14" d="M350,247H0V0Z" transform="translate(9 97.03)" fill="gold"/>
    </g>
    <text id="D" transform="translate(331.5 582)" font-size="200" font-family="SegoeUI-Bold, Segoe UI" font-weight="700"><tspan x="-73.73" y="0">D</tspan></text>
  </g>
</svg>
