<svg xmlns="http://www.w3.org/2000/svg" width="250" height="86" viewBox="0 0 250 86">
  <g id="cashback" transform="translate(-466 -388)">
    <rect id="buy" width="250" height="86" rx="10" transform="translate(466 388)" fill="#252525"/>
    <text id="You_ve_Received:_20_Cashback" data-name="You&apos;ve Received:
$20 Cashback" transform="translate(544 403)" fill="#fff" font-size="14" font-family="Poppins-Medium, Poppins" font-weight="500"><tspan x="0" y="20">You&apos;ve Received</tspan><tspan y="20" font-size="19">:</tspan><tspan font-size="19"><tspan x="0" y="49">$20 Cashback</tspan></tspan></text>
    <path id="Icon_awesome-bitcoin" data-name="Icon awesome-bitcoin" d="M40.563,20.563a20,20,0,1,1-20-20A20,20,0,0,1,40.563,20.563ZM29.139,17.713c.4-2.661-1.628-4.092-4.4-5.046l.9-3.6-2.195-.547-.875,3.51c-.577-.144-1.17-.279-1.758-.414l.881-3.533L19.5,7.532l-.9,3.6c-.478-.109-.946-.216-1.4-.329l0-.011-3.027-.756-.584,2.344s1.628.373,1.594.4a1.168,1.168,0,0,1,1.023,1.276l-1.024,4.107a1.819,1.819,0,0,1,.228.073l-.232-.058-1.435,5.753a.8.8,0,0,1-1.006.521c.022.032-1.6-.4-1.6-.4l-1.09,2.512,2.856.712c.531.133,1.052.272,1.565.4l-.908,3.646,2.192.547.9-3.607q.872.236,1.749.454l-.9,3.591,2.195.547.908-3.639c3.742.708,6.556.422,7.741-2.962.955-2.725-.048-4.3-2.016-5.322a3.5,3.5,0,0,0,2.8-3.222Zm-5.014,7.031c-.678,2.725-5.267,1.252-6.754.882L18.575,20.8c1.488.371,6.258,1.106,5.549,3.948Zm.679-7.07c-.619,2.479-4.438,1.219-5.677.911L20.219,14.2C21.458,14.512,25.448,15.088,24.8,17.674Z" transform="translate(484.438 410.438)" fill="#faca43"/>
  </g>
</svg>
